Simulation
nRows=24
nColumns=15
endheader
time  TH_x TH_y TH_z SC_y  SC_z  SC_x  AC_y  AC_z  AC_x  GH_y  GH_z  GH_yy  EL_x  PS_y
0.0  0.000000  0.000000  0.000000  -28.844536056438685  -1.2606626642371481  13.160729417536228  55.83262007725146  -7.80768296852187  -14.449832547764649  93.30694944416554  0.713708862543911  -69.29029105879322  25.698247063769486  0.000000
0.015  0.000000  0.000000  0.000000  -28.917728896717236  -1.1359531509195924  13.199780015547534  55.74401371534473  -7.520291229582379  -14.499506054309391  70.27480835960624  0.738022121643091  -46.36803375081171  25.625417135218232  0.000000
0.03  0.000000  0.000000  0.000000  -28.878266306382017  -1.0350279144949872  13.249205979091215  55.69772762121839  -7.30837771180065  -14.567903352588823  50.7979470856058  0.9065984071520651  -26.979407162377832  25.579661488941795  0.000000
0.045  0.000000  0.000000  0.000000  -28.890031888215848  -0.9598185613188416  13.312953900986004  55.673221671581864  -7.172358072885195  -14.632527543772845  38.18002127230891  1.2145978896886698  -14.47859614838266  25.53892965909838  0.000000
0.06  0.000000  0.000000  0.000000  -28.915565335194902  -0.9062424364077746  13.392304254120699  55.63914011804481  -7.089361298637975  -14.697980074053591  31.352882857841294  1.5953831056035521  -7.828780019111674  25.498685464063236  0.000000
0.075  0.000000  0.000000  0.000000  -28.95400172578775  -0.8663680231678469  13.482911071343011  55.6192400654233  -7.052617236172537  -14.763781184554137  27.77179699654576  2.0325044606236813  -4.469613906743865  25.44973885472346  0.000000
0.09  0.000000  0.000000  0.000000  -28.9964622023175  -0.8335912027415467  13.585531600694038  55.60239144031794  -7.04858682600569  -14.827500006987698  25.818523576195037  2.5023589117849263  -2.781817643660735  25.4004446365409  0.000000
0.105  0.000000  0.000000  0.000000  -29.040577815679136  -0.803320140339421  13.698971954555391  55.59210023310742  -7.071624142385589  -14.886519176028589  24.738076582951646  3.0006933588869806  -2.006718642264593  25.34521597549601  0.000000
0.12  0.000000  0.000000  0.000000  -29.085282664149887  -0.7734642065399508  13.821024371426429  55.58862169547907  -7.113230362008303  -14.941803088873476  24.15502413342069  3.5247642573067073  -1.7679551821528805  25.287082179622733  0.000000
0.135  0.000000  0.000000  0.000000  -29.131794579843344  -0.7418824833844198  13.95142979377923  55.590359929845626  -7.168625594579972  -14.990606025242853  23.819645004079426  4.073163414458167  -1.812389656076383  25.224812720715512  0.000000
0.15  0.000000  0.000000  0.000000  -29.179443410784017  -0.7077292422814063  14.08814119609854  55.59864328841432  -7.23232207858573  -15.034629256764338  23.644831904509807  4.646212313283622  -2.051696206251091  25.159499102188448  0.000000
0.16499999999999998  0.000000  0.000000  0.000000  -29.229617488750588  -0.6700676399976593  14.23136002446847  55.61279572095586  -7.30146697969224  -15.072022849452841  23.54074170010434  5.2434826491387545  -2.391840700497445  25.090384071046348  0.000000
0.18  0.000000  0.000000  0.000000  -29.281704510698233  -0.6287579869044111  14.379203585677145  55.633791640302306  -7.37182203606187  -15.10390719308297  23.48772222531337  5.865192802229999  -2.8110706610569705  25.017917661747887  0.000000
0.195  0.000000  0.000000  0.000000  -29.337300239850602  -0.5829606691945949  14.53152372780059  55.66105122034961  -7.441238598349162  -15.12863079361571  23.446291488549125  6.511119644401279  -3.2656616740207367  24.942599503042114  0.000000
0.21  0.000000  0.000000  0.000000  -29.39564220468071  -0.5318996566772654  14.686522620080083  55.69559441476108  -7.5069561409217584  -15.146688325965544  23.417773865433805  7.181044953347651  -3.754696419231859  24.86464156895064  0.000000
0.22499999999999998  0.000000  0.000000  0.000000  -29.458924183725607  -0.4757198866879031  14.844333556838826  55.7370569905646  -7.567553012887018  -15.156714817572285  23.38091803162841  7.874110967540816  -4.252804132722898  24.78428862744237  0.000000
0.24  0.000000  0.000000  0.000000  -29.526538557947326  -0.41446496480624967  15.003573551664937  55.78616734892687  -7.620960031119952  -15.159037661987249  23.341077286739313  8.589124974085387  -4.7629214403047415  24.701481617121154  0.000000
0.255  0.000000  0.000000  0.000000  -29.599703968375195  -0.3476048400142373  15.164263299819508  55.842868702743075  -7.666322686098635  -15.152109459203153  23.291436408280088  9.32451761752382  -5.274424660292021  24.616306089710854  0.000000
0.27  0.000000  0.000000  0.000000  -29.677783668793445  -0.2746726474722224  15.325186759817438  55.90783385094523  -7.702283418976183  -15.135708345076473  23.238488276721622  10.078750816051375  -5.791159096255387  24.52892302227001  0.000000
0.285  0.000000  0.000000  0.000000  -29.76202509541496  -0.19514323383661017  15.486500864715543  55.9811059594312  -7.728269214411177  -15.108443879764241  23.17872818572263  10.849918915495598  -6.306182215473909  24.43957345982574  0.000000
0.3  0.000000  0.000000  0.000000  -29.851334941448624  -0.10860202752156575  15.64711277865018  56.06326874810735  -7.743382613507334  -15.070219610818048  23.117514966699826  11.636029587484105  -6.8224940099113685  24.3481912979722  0.000000
0.315  0.000000  0.000000  0.000000  -29.946725236839384  -0.015067526119216381  15.807249078287343  56.15416814198259  -7.747086537889795  -15.020138751967604  23.05220558947077  12.434609487604886  -7.334331587742315  24.25488124565649  0.000000
0.32999999999999996  0.000000  0.000000  0.000000  -30.046706133583797  0.08538604070021016  15.96577008821117  56.25377154226362  -7.738477140441957  -14.958442193988983  22.986468428205562  13.243057126519385  -7.843241983973544  24.159465592104123  0.000000
0.345  0.000000  0.000000  0.000000  -30.151403787613873  0.1927426875404666  16.12264974469049  56.36153359876636  -7.7169220849041595  -14.884889835189098  22.919142049749702  14.058436029660456  -8.34554782729676  24.06192263538857  0.000000
